<svg id="Icons" height="512" viewBox="0 0 74 74" width="512" xmlns="http://www.w3.org/2000/svg"><path d="m54.949 8.18a1 1 0 0 1 -.518-.145 26.812 26.812 0 0 0 -2.5-1.351 1 1 0 0 1 .854-1.809 29.2 29.2 0 0 1 2.682 1.45 1 1 0 0 1 -.52 1.855z"/><path d="m55.81 72h-34.36a1 1 0 0 1 -1-1v-8.12h-4.03a4.645 4.645 0 0 1 -4.64-4.64v-13.44h-4.37a2.905 2.905 0 0 1 -2.654-4.086l6.668-14.893a29.441 29.441 0 0 1 28.756-23.821 28.67 28.67 0 0 1 5.275.487 1 1 0 1 1 -.37 1.966 26.586 26.586 0 0 0 -4.905-.453 27.44 27.44 0 0 0 -26.8 22.241 1.057 1.057 0 0 1 -.076.278l-6.72 15.01a.9.9 0 0 0 .826 1.271h5.37a1 1 0 0 1 1 1v14.44a2.643 2.643 0 0 0 2.64 2.64h5.03a1 1 0 0 1 1 1v8.12h32.36v-2.49a28.587 28.587 0 0 1 6.351-18.279 27.854 27.854 0 0 0 4.139-28.54 1 1 0 1 1 1.841-.782 29.854 29.854 0 0 1 -4.441 30.6 26.589 26.589 0 0 0 -5.89 17v3.491a1 1 0 0 1 -1 1z"/><path d="m62.391 14.85a1 1 0 0 1 -.8-.393 22.737 22.737 0 0 0 -1.9-2.185 1 1 0 1 1 1.424-1.4 24.869 24.869 0 0 1 2.063 2.376 1 1 0 0 1 -.794 1.606z"/><path d="m39 31.776a1 1 0 0 1 -1-1v-5.745a1 1 0 0 1 2 0v5.745a1 1 0 0 1 -1 1z"/><path d="m39 26.031a6.266 6.266 0 1 1 6.266-6.265 6.272 6.272 0 0 1 -6.266 6.265zm0-10.531a4.266 4.266 0 1 0 4.266 4.266 4.271 4.271 0 0 0 -4.266-4.266z"/><path d="m49.531 38a1 1 0 0 1 -1-1v-5.224h-19.062v5.224a1 1 0 0 1 -2 0v-6.224a1 1 0 0 1 1-1h21.062a1 1 0 0 1 1 1v6.224a1 1 0 0 1 -1 1z"/><path d="m52.032 45h-5a2 2 0 0 1 -2-2v-5a2 2 0 0 1 2-2h5a2 2 0 0 1 2 2v5a2 2 0 0 1 -2 2zm-5-7v5h5v-5z"/><path d="m30.969 45h-5a2 2 0 0 1 -2-2v-5a2 2 0 0 1 2-2h5a2 2 0 0 1 2 2v5a2 2 0 0 1 -2 2zm0-7h-5v5h5z"/></svg>